<svg xmlns="http://www.w3.org/2000/svg" viewBox="0 0 496 288">
  <g id="Layer_2" data-name="Layer 2">
    <g id="Icons">
      <g>
        <path d="M160,224a32,32,0,1,0,32,32A32,32,0,0,0,160,224Zm0,48a16,16,0,1,1,16-16A16,16,0,0,1,160,272Z"/>
        <path d="M392,224a32,32,0,1,0,32,32A32,32,0,0,0,392,224Zm0,48a16,16,0,1,1,16-16A16,16,0,0,1,392,272Z"/>
        <path d="M80,224a32,32,0,1,0,32,32A32,32,0,0,0,80,224Zm0,48a16,16,0,1,1,16-16A16,16,0,0,1,80,272Z"/>
        <path d="M494.65,141.8l-.18-.55a32.49,32.49,0,0,0-3.47-7.44l-45.18-71a31.83,31.83,0,0,0-27-14.82H407L415,21.58a16.43,16.43,0,0,0-1.85-14.71L413,6.6A16.17,16.17,0,0,0,399.42,0L37.08,15.37a15.89,15.89,0,0,0-14.51,10.9c-.08.25-.15.5-.21.76L16.67,52a13.52,13.52,0,0,0-.24,4.79,14.77,14.77,0,0,0,.78,3.88s0,.08,0,.13l6,16.94A15.79,15.79,0,0,0,33.57,88.69L156.25,134.1,7.47,144A8,8,0,0,0,0,152v88a8,8,0,0,0,8,8H24a8,8,0,0,0,6.25-3l29.6-37H187.72l29.62,44.44A8,8,0,0,0,224,256H336a8,8,0,0,0,0-16H228.28L207,208H406.7a50.45,50.45,0,0,1,32.39,35.73A16,16,0,0,0,454.65,256H476a20,20,0,0,0,20-20V151A32,32,0,0,0,494.65,141.8ZM473.43,136H408V96h40ZM37.79,31.35,400,16h0a.47.47,0,0,1,0,.23c-.06.16-.11.32-.16.48L390.24,48H34Zm1.15,42.27-.29-.1c-.07-.25-.14-.49-.22-.73L35.34,64H55.09l202.84,46.81a4,4,0,0,1,2.3,1.5l10.62,14.15-75.54,5ZM360,192H56a8,8,0,0,0-6.25,3l-29.6,37H16V159.49l344-22.94Zm-70.11-66.81L273,102.71a20,20,0,0,0-11.5-7.49L126.24,64H360v56.52ZM476,240H454.65a66.55,66.55,0,0,0-44.21-47.62A8.08,8.08,0,0,0,408,192H376V64h42.83a15.91,15.91,0,0,1,13.49,7.41L437.79,80H408a16,16,0,0,0-16,16v40a16,16,0,0,0,16,16h72v24h-8a8,8,0,0,0,0,16h8v44A4,4,0,0,1,476,240Z"/>
      </g>
    </g>
  </g>
</svg>
