<svg xmlns="http://www.w3.org/2000/svg" viewBox="0 0 496 416">
  <g id="Layer_2" data-name="Layer 2">
    <g id="Icons">
      <path d="M493,136.84,458.31,81.4a19.88,19.88,0,0,0-17-9.4H420a20,20,0,0,0-20,20v44a32,32,0,0,0-32,32v56a32,32,0,0,1-32,32H240V239.92c28.06-.47,51.53-3.48,69.82-9A48.3,48.3,0,0,0,344,185V128h8a8,8,0,0,0,0-16h-8V76.82a47.71,47.71,0,0,0-8.94-27.9L314.47,20.1A48.08,48.08,0,0,0,275.41,0H188.58a48.08,48.08,0,0,0-39.05,20.1L128.94,48.92A47.71,47.71,0,0,0,120,76.82V112h-8a8,8,0,0,0,0,16h8v57a48.3,48.3,0,0,0,34.18,46c18.29,5.49,41.75,8.5,69.82,9V256H128a32,32,0,0,1-32-32V160a32,32,0,0,0-32-32H24V72A8,8,0,0,0,8,72v56a8,8,0,0,0,0,16v56a8,8,0,0,0,16,0V144H48V400H32a8,8,0,0,0,0,16H80a8,8,0,0,0,0-16H64V320H400v33a32,32,0,1,0,16,0V248h60a20,20,0,0,0,20-20V147.44A20,20,0,0,0,493,136.84Zm-357-60a31.82,31.82,0,0,1,6-18.6L162.54,29.4a32.08,32.08,0,0,1,26-13.4h86.83a32.08,32.08,0,0,1,26,13.4L322,58.22a31.82,31.82,0,0,1,6,18.6V112H136ZM136,185V128H328v57a32.2,32.2,0,0,1-22.78,30.65C286.71,221.18,262.08,224,232,224s-54.71-2.82-73.22-8.38A32.2,32.2,0,0,1,136,185ZM64,304V144a16,16,0,0,1,16,16v64a48.05,48.05,0,0,0,48,48H336a48.05,48.05,0,0,0,48-48V168a16,16,0,0,1,16-16V304Zm360,80a16,16,0,1,1-16-16A16,16,0,0,1,424,384Zm56-156a4,4,0,0,1-4,4H416V92a4,4,0,0,1,4-4h21.35a4,4,0,0,1,3.39,1.88l34.65,55.44a4,4,0,0,1,.61,2.12Z"/>
    </g>
  </g>
</svg>
