<svg xmlns="http://www.w3.org/2000/svg" viewBox="0 0 496 496">
  <g id="Layer_2" data-name="Layer 2">
    <g id="Icons">
      <g>
        <path d="M495.92,110.94a2.17,2.17,0,0,0,0-.25,7.43,7.43,0,0,0-.21-1s0,0,0,0a8.38,8.38,0,0,0-.37-1l-.09-.18a7.22,7.22,0,0,0-.46-.82l-.06-.1a7.21,7.21,0,0,0-.62-.81l-.16-.18a7.36,7.36,0,0,0-.63-.62,1.27,1.27,0,0,0-.13-.11,7.81,7.81,0,0,0-.82-.6l-.2-.12a8.34,8.34,0,0,0-.89-.47l0,0,0,0-.05,0L251.18.66a8,8,0,0,0-6.36,0L4.91,104.62l-.06,0,0,0,0,0a8.34,8.34,0,0,0-.89.47l-.2.11c-.28.19-.56.39-.83.61a1.14,1.14,0,0,0-.11.11,6.25,6.25,0,0,0-.64.62l-.16.18a7.21,7.21,0,0,0-.62.81l-.06.09a8.36,8.36,0,0,0-.46.83l-.09.18a8.38,8.38,0,0,0-.37,1s0,0,0,0a7.43,7.43,0,0,0-.21,1,2.17,2.17,0,0,0,0,.25A7.45,7.45,0,0,0,0,112v80a8,8,0,0,0,4.82,7.34l240,104h0a8.05,8.05,0,0,0,6.34,0h0l240-104A8,8,0,0,0,496,192V112A7.45,7.45,0,0,0,495.92,110.94ZM248,16.72,467.88,112,248,207.28,28.12,112ZM16,124.19l224,97.06v62.56L16,186.75ZM256,283.81V221.25l224-97.06v62.56Z"/>
        <path d="M495.88,302.69a7.43,7.43,0,0,0-.21-1s0,0,0-.05a8.38,8.38,0,0,0-.37-1l-.09-.18a7.22,7.22,0,0,0-.46-.82l-.06-.1a7.21,7.21,0,0,0-.62-.81l-.16-.18a7.36,7.36,0,0,0-.63-.62,1.27,1.27,0,0,0-.13-.11,7.81,7.81,0,0,0-.82-.6l-.2-.12a8.34,8.34,0,0,0-.89-.47l0,0,0,0-.05,0-87.91-38.09a8,8,0,1,0-6.36,14.68L467.88,304,248,399.28,28.12,304l71.06-30.79a8,8,0,1,0-6.36-14.68L4.91,296.62l0,0,0,0-.05,0a9.25,9.25,0,0,0-.88.47l-.2.12a6.89,6.89,0,0,0-.82.6,1.27,1.27,0,0,0-.13.11,7.36,7.36,0,0,0-.63.62l-.16.18a7.21,7.21,0,0,0-.62.81l-.06.1a7.22,7.22,0,0,0-.46.82l-.09.18a8.38,8.38,0,0,0-.37,1s0,0,0,.05a7.43,7.43,0,0,0-.21,1,2.17,2.17,0,0,0,0,.25A7.45,7.45,0,0,0,0,304v80a8,8,0,0,0,4.82,7.34l240,104h0a8.05,8.05,0,0,0,6.34,0h0l240-104A8,8,0,0,0,496,384V304a7.45,7.45,0,0,0-.08-1.06A2.17,2.17,0,0,0,495.88,302.69ZM16,316.19l224,97.06v62.56L16,378.75ZM256,475.81V413.25l224-97.06v62.56Z"/>
      </g>
    </g>
  </g>
</svg>
