<svg xmlns="http://www.w3.org/2000/svg" viewBox="0 0 496 288">
  <g id="Layer_2" data-name="Layer 2">
    <g id="Icons">
      <g>
        <path d="M144,224a32,32,0,1,0,32,32A32,32,0,0,0,144,224Zm0,48a16,16,0,1,1,16-16A16,16,0,0,1,144,272Z"/>
        <path d="M392,224a32,32,0,1,0,32,32A32,32,0,0,0,392,224Zm0,48a16,16,0,1,1,16-16A16,16,0,0,1,392,272Z"/>
        <path d="M64,224a32,32,0,1,0,32,32A32,32,0,0,0,64,224Zm0,48a16,16,0,1,1,16-16A16,16,0,0,1,64,272Z"/>
        <path d="M494.65,141.8l-.18-.54a32.56,32.56,0,0,0-3.47-7.45l-45.18-71a31.84,31.84,0,0,0-27-14.82H376V29a19.86,19.86,0,0,0-5.86-14.14L357.66,2.34a8,8,0,0,0-11.32,11.32l12.49,12.48A4,4,0,0,1,360,29V76.31A31.71,31.71,0,0,0,344,72a32,32,0,0,0-32,30.64L285.55,71.55l-.14-.14c-.1-.12-.2-.23-.31-.34l-.25-.22-.32-.29-.31-.24-.31-.22-.39-.24-.22-.13-.06,0-.08,0L165,8l-.21-.1-.36-.16-.35-.14-.4-.14-.33-.09-.44-.11-.31,0-.46-.07H162L84.74.09a21.13,21.13,0,0,0-18.3,7.45,8,8,0,0,0-.55.75L27.12,68.52a19.4,19.4,0,0,0,1.57,23.2L48,114.46V192H40a8,8,0,0,0-6.25,3l-32,40a8,8,0,0,0,12.5,10l29.6-37h120.4l37.6,45.12A8,8,0,0,0,208,256H336a8,8,0,0,0,0-16H211.75l-26.67-32H406.7a50.45,50.45,0,0,1,32.39,35.73A16,16,0,0,0,454.65,256H476a20,20,0,0,0,20-20V151A32,32,0,0,0,494.65,141.8ZM473.43,136H408V96h40Zm-248,56L280.9,90.77l46.34,54.39a2.71,2.71,0,0,1,.31,3.39L300.35,192Zm-20.2,0L96.69,142.46l67.7-116.72L268.52,80.06,207.2,192Zm135.87-35a18.77,18.77,0,0,0-.91-21.27A31.84,31.84,0,0,0,360,131.7V192H319.23ZM344,88a16,16,0,1,1-16,16A16,16,0,0,1,344,88ZM40.57,77.18,79,17.45A5.35,5.35,0,0,1,83.28,16l64.81,5.91-64,110.32L40.89,81.36A3.41,3.41,0,0,1,40.57,77.18ZM64,133.3l15.25,17.95.07.08c.13.15.27.29.41.43l.18.18a5.63,5.63,0,0,0,.45.38l.21.17.46.31.25.17,0,0,.18.09.51.26L166.7,192H64ZM476,240H454.65a66.55,66.55,0,0,0-44.21-47.62A8.08,8.08,0,0,0,408,192H376V64h42.83a15.91,15.91,0,0,1,13.49,7.41L437.79,80H408a16,16,0,0,0-16,16v40a16,16,0,0,0,16,16h72v24h-8a8,8,0,0,0,0,16h8v44A4,4,0,0,1,476,240Z"/>
      </g>
    </g>
  </g>
</svg>
