<svg xmlns="http://www.w3.org/2000/svg" viewBox="0 0 496 464.01">
  <g id="Layer_2" data-name="Layer 2">
    <g id="Icons">
      <g>
        <path d="M187.72,86.91a20.11,20.11,0,0,0-24.63-14.22L14.91,112.4A20.14,20.14,0,0,0,.69,137l83.59,312a20,20,0,0,0,24.63,14.22L257.09,423.6A20.14,20.14,0,0,0,271.31,399ZM253,408.14,104.77,447.86a4.12,4.12,0,0,1-5-2.91l-83.59-312a4.13,4.13,0,0,1,2.91-5L167.23,88.14A4.3,4.3,0,0,1,168.3,88a4.12,4.12,0,0,1,4,3L255.86,403.1A4.13,4.13,0,0,1,253,408.14Z"/>
        <path d="M143.48,284.19l12.66-7a20,20,0,0,0,9.61-22.66l-4.51-16.83a20,20,0,0,0-26.85-13.35l-14.71,6a48.46,48.46,0,0,0-28.51,57.34l27.36,102.09A20.15,20.15,0,0,0,138,404.65a19.83,19.83,0,0,0,5.2-.69,28.22,28.22,0,0,0,19.94-34.53l-21.59-80.57A4.12,4.12,0,0,1,143.48,284.19ZM126.05,293l21.59,80.57A12.21,12.21,0,0,1,139,388.51a4.12,4.12,0,0,1-5-2.91L106.63,283.51a32.43,32.43,0,0,1,19.08-38.38l14.7-6h0a4.18,4.18,0,0,1,1.51-.29,4,4,0,0,1,3.86,3l4.51,16.83a4,4,0,0,1-1.92,4.53l-12.65,7A20.08,20.08,0,0,0,126.05,293Z"/>
        <path d="M208,80a8,8,0,0,0,3.79-1C291.5,36,379.27,16,488,16a8,8,0,0,0,0-16C376.51,0,286.33,20.64,204.2,65A8,8,0,0,0,208,80Z"/>
        <path d="M488.52,336a374.36,374.36,0,0,0-196.19,40.87,8,8,0,0,0,7.34,14.22A358.53,358.53,0,0,1,487.48,352a8,8,0,1,0,1-16Z"/>
        <path d="M488.39,104a374.81,374.81,0,0,0-106.27,10A8,8,0,0,0,384,129.84a8.19,8.19,0,0,0,1.89-.22A358.68,358.68,0,0,1,487.61,120a8,8,0,1,0,.78-16Z"/>
        <path d="M316.72,136.42c-11.11,5-22.11,10.58-32.69,16.64A8,8,0,1,0,292,166.94c10.13-5.79,20.66-11.15,31.3-15.92a8,8,0,1,0-6.55-14.6Z"/>
        <path d="M391.81,232.17a8,8,0,0,0-9.55-6.07,428.92,428.92,0,0,0-106,38.82,8,8,0,0,0,7.43,14.17,413.48,413.48,0,0,1,102-37.38A8,8,0,0,0,391.81,232.17Z"/>
        <path d="M488.23,216c-10.82-.32-21.79-.22-32.6.29a8,8,0,0,0,.36,16h.38c10.41-.49,21-.58,31.39-.27a8,8,0,1,0,.47-16Z"/>
      </g>
    </g>
  </g>
</svg>
