<svg xmlns="http://www.w3.org/2000/svg" viewBox="0 0 464.01 496">
  <g id="Layer_2" data-name="Layer 2">
    <g id="Icons">
      <g>
        <path d="M448.75,78.64C435.1,53.27,414.18,37.42,389.85,34L282.64,19A75.19,75.19,0,0,0,250.32,6.32L210.64.72h0c-25.88-3.62-52,6.49-73.39,28.45C116.41,50.49,102.36,80.62,97.68,114a162.5,162.5,0,0,0,3.48,64.06,8,8,0,0,0,15.46-4.13,146.49,146.49,0,0,1-3.1-57.71c8.56-61,51.11-105.75,94.87-99.67h.08c20.68,2.91,38.72,16.85,50.8,39.27,12.52,23.25,17.1,52.6,12.89,82.64-3.82,27.06-14.59,52.14-30.33,70.6-15.14,17.76-33.84,28.22-52.66,29.47a32,32,0,0,0-20.53,9.32c-15.93,16-33.79,48.24-35.35,81.35L128,439.62a8,8,0,0,0,7.61,8.37H136a8,8,0,0,0,8-7.62L149.27,330c1.36-28.87,16.87-56.94,30.7-70.81a16,16,0,0,1,5.64-3.64l29,4.07a74.55,74.55,0,0,0,10.31.72,76.55,76.55,0,0,0,24.33-4l107.15,15a71.12,71.12,0,0,0,9.75.68c21.05,0,41.75-9.5,59.19-27.37,19.49-20,32.64-48.18,37-79.44S462,103.19,448.75,78.64ZM224.08,244.3A108.21,108.21,0,0,0,254,219.46c17.68-20.75,29.76-48.71,34-78.75,4.69-33.4-.52-66.24-14.65-92.46a105.68,105.68,0,0,0-18-24.58,60.81,60.81,0,0,1,19.32,9.27l.28.21a76.27,76.27,0,0,1,16.22,16.1c17.93,23.79,25.63,59.24,20.6,94.84-6.6,47-33.37,84.33-65.3,96.23a7.65,7.65,0,0,0-1.62.59A61,61,0,0,1,224.08,244.3ZM446.58,163c-7.49,53.21-42.69,93-80.46,93a53.42,53.42,0,0,1-7.45-.52l-85-11.92a110.64,110.64,0,0,0,14.34-12.44c20.82-21.33,34.87-51.45,39.55-84.8,5.7-40.29-2.92-79.18-23.66-106.7-.43-.58-.89-1.13-1.33-1.69l85,11.92c19.16,2.69,35.87,15.61,47.05,36.37C446.28,107.79,450.51,135.05,446.58,163Z"/>
        <path d="M96,448a8,8,0,0,0,8-8V274.4A80.49,80.49,0,0,1,170.54,195l62.85-11.09a8,8,0,0,0-2.78-15.76l-62.85,11.09A96.47,96.47,0,0,0,88,274.4V440A8,8,0,0,0,96,448Z"/>
        <path d="M168,400a8,8,0,1,0,0,16c6.43.14,40,14.14,40,32,0,15.51-33.65,32-96,32s-96-16.49-96-32c0-17.72,26.26-32,48-32a8,8,0,0,0,0-16,80.22,80.22,0,0,0-41.29,12.25C8.06,421.57,0,434.27,0,448c0,29.16,44,48,112,48s112-18.84,112-48C224,418,179.59,400,168,400Z"/>
      </g>
    </g>
  </g>
</svg>
