<svg xmlns="http://www.w3.org/2000/svg" viewBox="0 0 630.4 309.64">
  <defs>
    <style>
      .cls-1 {
        fill: #dd1f26;
      }
    </style>
  </defs>
  <g id="Layer_2" data-name="Layer 2">
    <g id="Layer_1-2" data-name="Layer 1">
      <g>
        <path d="M428,261.63h2.25c1.91,0,3.75-.51,4.38,2.51.71,3.36,2.43,6.5,3.58,9.78,1,2.79,1.74,5.67,2.75,8.45.24.65,1.11,1.07,1.69,1.59a9.53,9.53,0,0,1,.36-1.62c1.23-3,2.51-5.9,3.73-8.86.41-1,.71-2,1.07-3a69.33,69.33,0,0,0,2.47-7.19c.37-1.59,1.19-1.71,2.43-1.7,2.66,0,5.33.06,8,0,1.65,0,2.32.59,2.52,2.29.67,5.49,1.55,11,2.29,16.44.62,4.66,1.19,9.34,1.73,14,.39,3.35.54,6.74,1.08,10.07.56,3.51.71,3.48-3.13,3.49h-1c-2.16-.06-5,.66-6.29-.41-1.16-.93-.29-4.06-1-5.95-2.08-5.43-1.25-11.21-2.42-16.72a4.17,4.17,0,0,0-.55-1,5.59,5.59,0,0,0-.61.94c-1.64,4.17-3.29,8.34-4.89,12.53-.46,1.21-.72,2.49-1.15,3.71-.62,1.78-1.31,3.54-2,5.32-.89,2.41-3.1,1.87-4.56,1.42-1.13-.35-2.06-2-2.66-3.24-1.37-2.9-2.53-5.9-3.69-8.9-.53-1.36-.77-2.84-1.27-4.21-.67-1.85-1.42-3.66-2.23-5.45-.2-.43-.76-.69-1.15-1a5,5,0,0,0-.45,1.3c-.39,4.53-.64,9.07-1.15,13.58a65,65,0,0,1-1.5,7.37,1.18,1.18,0,0,1-.86.67c-3.08.06-6.17.08-9.25,0a1.48,1.48,0,0,1-1-1c.15-2.37.44-4.73.7-7.09,0-.24.17-.47.2-.71.56-4.34,1.13-8.67,1.67-13,.36-2.86.27-5.85,1.11-8.56,1.47-4.74,1.89-9.58,2.4-14.45.05-.49,1-1.18,1.64-1.25a41.62,41.62,0,0,1,4.74-.06Z"/>
        <path d="M67.83,309.4a22.05,22.05,0,0,1-3.69,0c-2.35-.47-4.9-.7-6.94-1.8a26.71,26.71,0,0,1-6.87-5.42,23.42,23.42,0,0,1-4.95-7.42,31.12,31.12,0,0,1-2-11.15,22.1,22.1,0,0,1,2.15-9.38c1.5-3.14,4.19-5.72,6.43-8.49,1.77-2.19,4.27-3.07,6.78-4.21,2.7-1.24,5.33-1,8-1.43,4.85-.71,9.23.89,13.33,2.81,2.56,1.19,4.63,3.68,6.58,5.88,5.15,5.81,6,12.94,4.87,20.15a24.37,24.37,0,0,1-7,14c-2.45,2.46-5.25,3.66-8.09,5.26C73.37,309.88,70.38,309,67.83,309.4Zm11.8-25.28a29.45,29.45,0,0,0-2.06-5.36c-2.57-4.13-5.73-7.32-11.33-6.47-2.68.41-7.78,3.42-8.55,6-1.4,4.67-1.94,9.09,1,13.76,3.4,5.33,8.63,6.1,14.15,3.5C77,293.61,79.39,289.39,79.63,284.12Z"/>
        <path d="M96.49,284.85c0-7,0-14,0-21,0-1.69.4-2.46,2.2-2.27a12.34,12.34,0,0,0,3.74,0c5.13-1.08,7.63,2.09,10.15,5.73,3.83,5.49,7.95,10.78,11.92,16.17.94,1.28,1.79,2.63,2.68,3.94.2.28.42.56.63.83a6.55,6.55,0,0,0,.2-1.16c0-7.65.07-15.31,0-23,0-1.89.4-2.71,2.46-2.54a52.44,52.44,0,0,0,7,0c1.84-.11,2.42.49,2.41,2.38-.09,10.07,0,20.14,0,30.22,0,3.91-.07,7.82,0,11.73,0,1.55-.53,2-2,2a43.73,43.73,0,0,0-7.24.06c-2.39.32-3.61-1-4.8-2.55-2.53-3.3-5.07-6.61-7.45-10-2.21-3.18-4.17-6.54-6.35-9.74a27.22,27.22,0,0,0-2.92-3.26c-.12-.14-.38-.14-.58-.21a10.3,10.3,0,0,0-.16,1.21q0,8.73,0,17.48c0,1.66-.08,3.33,0,5,.09,1.49-.41,2.1-2,2.05-2.58-.09-5.16-.11-7.74,0-1.64.07-2.14-.47-2.12-2.11C96.53,298.84,96.49,291.84,96.49,284.85Z"/>
        <path d="M573.19,284.77c0,7,0,14,0,21,0,1.6-.43,2.33-2.1,2.16a7.64,7.64,0,0,0-2.24,0C563,309,559,307,556.35,301.51c-1.71-3.53-4.31-6.64-6.67-9.82-2.2-3-4.61-5.77-6.93-8.65l-.69-.92a5.45,5.45,0,0,0-.35,1.33c0,7.25-.11,14.5,0,21.74,0,2.26-.66,2.91-2.81,2.75a65.38,65.38,0,0,0-7,0c-1.45.06-2.05-.33-2-1.92q.08-21.25,0-42.49c0-1.61.61-2,2.05-1.91a28.2,28.2,0,0,0,5.74,0c3.41-.54,5,1.41,6.69,3.85,3,4.35,6.4,8.43,9.5,12.72,2.14,3,4.07,6.07,6.09,9.12.29.43.6.86.9,1.28a6.24,6.24,0,0,0,.53-1.71c0-7.49.11-15,0-22.49,0-2.2.53-2.95,2.76-2.76a51,51,0,0,0,7,0c1.67-.07,2.12.57,2.1,2.17C573.15,270.77,573.19,277.77,573.19,284.77Z"/>
        <path d="M611.94,281.63c3.17,0,6.33-.08,9.49.07.6,0,1.69.94,1.66,1.39-.24,4,.16,8.22-1.27,11.74-1.83,4.51-4.39,8.69-9,11.79-6.07,4.11-12.42,3.05-18.51,2.41-3.89-.41-7.71-3.1-10.68-6.54-6-7-6.59-15.17-5.45-23.48a21.36,21.36,0,0,1,9.15-15.09c5-3.55,10.39-3.78,16.13-3.87,7.2-.11,11.84,3.78,15.79,9a7.22,7.22,0,0,1,1.18,2.91,2,2,0,0,1-.68,1.76c-2.36,1.24-4.93,2.1-7.19,3.48s-3.64.17-4.27-1.51c-.94-2.48-2.47-4.1-5-4.25a18.39,18.39,0,0,0-7,.67c-4,1.39-5.1,5.32-5.5,8.81-.43,3.73.32,7.64.84,11.43.38,2.74,3.95,5.28,6.61,6a8.91,8.91,0,0,0,11-5c.46-1,.16-2.21-1.51-2a2.78,2.78,0,0,1-.5,0l-6.64-.39c-.08-2.73-.23-5.46-.15-8.18,0-.42,1.07-1.13,1.66-1.15C605.44,281.58,608.69,281.64,611.94,281.63Z"/>
        <path d="M399,277.72c0-4.58.06-9.16,0-13.74,0-1.67.42-2.45,2.23-2.38,2.66.11,5.33.07,8,0,1.55,0,2.31.51,2.31,2.15,0,9.08.28,18.18-.17,27.23-.18,3.61-.23,7.55-2.61,10.82a20.69,20.69,0,0,1-5.19,4.75c-5.13,3.58-10.71,3.16-16.2,2.65a14.4,14.4,0,0,1-10.18-5.49c-2-2.67-2.73-5.93-3.46-9.36-2.13-10-.29-19.92-1-29.83-.17-2.2.72-3,2.86-2.92,2.41.1,4.83.11,7.24,0,1.84-.09,2.45.56,2.44,2.43-.07,9.07.05,18.15,0,27.23,0,3.85,4.5,7.76,8.43,6.86,2.36-.53,5.29-3.88,5.32-6.41.05-4.66,0-9.33,0-14Z"/>
        <path d="M196.19,261.65c2.75,0,5.51-.17,8.24,0a12.28,12.28,0,0,1,11,7.43,14.44,14.44,0,0,1,1,10.3c-.78,2.9-1.23,7-5.44,8.09a10.15,10.15,0,0,0-2.81,1.53,1,1,0,0,0-.11,1q5.72,8,11.5,15.95c1.2,1.64.41,1.95-1.1,1.95-3.5,0-7-.17-10.48.06-3,.2-3.32-2.33-4.41-3.94-1.53-2.26-2.68-4.78-4-7.17-.59-1-1.27-2-1.94-3a8.67,8.67,0,0,0-.87-.95,4.45,4.45,0,0,0-.46,1.29c0,3.74-.14,7.49,0,11.23.09,2.05-.66,2.59-2.56,2.48-2.32-.14-4.66-.08-7,0-1.23,0-1.78-.31-1.77-1.67q0-21.47,0-42.94c0-1.32.47-1.73,1.74-1.7,3.16.06,6.33,0,9.49,0Zm.05,14.85a26.9,26.9,0,0,1,0,3c-.21,1.76.57,2.61,2.21,2.11s3.89-1,4.45-2.15a8.05,8.05,0,0,0,.09-5.82c-.91-2.29-3.53-2.59-5.69-2-.6.15-.74,2.23-1,3.44A6.64,6.64,0,0,0,196.24,276.5Z"/>
        <path d="M336,284.77c0-6.9.08-13.81,0-20.71,0-2,.61-2.51,2.53-2.47,6,.12,12,0,18,.1a11.18,11.18,0,0,1,9.84,5.59c3.26,5.16,2.88,10.46,1.7,16-1.4,6.51-7.09,9.77-13.44,9.65-2.15,0-5.23-.69-6.2.41-1.15,1.31-.51,4.21-.58,6.43a37.1,37.1,0,0,0,0,5.48c.26,2.32-.73,2.87-2.82,2.72a46.86,46.86,0,0,0-6.49,0c-1.91.13-2.58-.42-2.54-2.45C336,298.59,336,291.68,336,284.77ZM347.72,277c0,4.86,0,4.86,4.86,4.68a3.52,3.52,0,0,0,1.47-.11c.68-.36,1.7-.88,1.76-1.43a19.82,19.82,0,0,0-.07-5.91c-.17-.79-1.67-1.73-2.65-1.86C347.73,271.7,347.72,271.78,347.72,277Z"/>
        <path d="M473.44,284.7c0-7,0-14,0-21,0-1.61.45-2.15,2.1-2.13,6.08.1,12.17-.18,18.23.14,4.07.22,7.61,1.67,10,5.61,3.18,5.12,2.84,10.37,1.69,15.76a15.94,15.94,0,0,1-2.32,5.11,9.4,9.4,0,0,1-2.75,2.19c-4,2.77-8.63,2.73-13.21,2.46-1.91-.12-2.64.41-2.54,2.45.17,3.57,0,7.15.07,10.73,0,1.41-.47,1.92-1.87,1.88-2.49-.07-5-.1-7.49,0-1.56.08-2-.52-1.95-2C473.47,298.85,473.44,291.77,473.44,284.7ZM484.71,277c0,1.08-.07,2.16,0,3.23,0,.5.42,1.41.61,1.4a28.63,28.63,0,0,0,6.7-.6c2.52-.74,1.33-3.19,1.41-4.9.13-2.46-1.12-3.63-3.58-3.82C484.7,271.89,484.7,271.89,484.71,277Z"/>
        <path d="M40,269.84c0,1.74.07,3.5,0,5.24,0,.55-.45,1.42-.84,1.52a2.44,2.44,0,0,1-1.67-.72c-3.16-2.64-6.81-4.58-10.81-3.29-2.4.78-4.59,3-6.28,5-2.77,3.37-1.88,7.61-1.56,11.52.28,3.43,5.27,7.59,8.73,7.48a30.59,30.59,0,0,0,6.74-.94c1.17-.3,2.12-1.42,3.2-2.11.47-.3,1.06-.7,1.52-.62A1.58,1.58,0,0,1,40,294.1c.07,3.66.22,7.34-.06,11-.11,1.38-1.42,2.23-3,3-3.72,1.69-7.53,1.62-11.27,1.21a17.14,17.14,0,0,1-7.15-2.75,50.89,50.89,0,0,1-8.29-6.79,11.05,11.05,0,0,1-3-5.3,61.82,61.82,0,0,1-1.14-11.28c-.11-8.42,3.86-14.49,10.82-19.22,5.15-3.49,10.57-4.22,16.38-3.62a13.7,13.7,0,0,1,5.28,2A4.21,4.21,0,0,1,40,265.1a31.21,31.21,0,0,1,.06,4.74Z"/>
        <path d="M178.52,269.72c0,1.83.07,3.66,0,5.49a2,2,0,0,1-.93,1.48c-.36.15-1.13-.28-1.53-.65-3.05-2.81-6.69-4.68-10.69-3.46-2.43.74-4.72,2.83-6.39,4.87-2.81,3.43-2,7.77-1.6,11.77.36,3.53,5.27,7.34,8.83,7.43,3.85.1,7.51,0,10.13-3.63.66-.93,2.15-.4,2.18,1.13.08,3.66.14,7.33,0,11-.08,1.62-1.22,2.23-2.92,2.92-3.51,1.4-7,1.29-10.55,1.33-3.16,0-5.7-1.53-8.39-2.93-3.71-1.92-6.22-5-8.54-8.24-1-1.33-1.31-3.06-2.06-4.55-1.92-3.85-1.72-8-1.41-12a23,23,0,0,1,3.48-10,28.51,28.51,0,0,1,5.47-6.37c1.93-1.8,4.44-2.56,6.67-3.79,3.38-1.86,6.73-1.29,10.08-1.21a22.09,22.09,0,0,1,6.9,1.77c.66.25,1.18,1.57,1.29,2.45A43.57,43.57,0,0,1,178.52,269.72Z"/>
        <path d="M285.46,284.67c0-7,.05-14,0-21,0-1.65.51-2.12,2.12-2.1,6.91.07,13.82.06,20.73,0,2,0,3,.63,2.76,2.76-.13,1.4,0,2.83,0,4.24,0,3-.7,3.7-3.64,3.73-2.66,0-5.32.07-8,0-1.53-.06-2.19.32-2.2,2.05,0,4.78-.1,4.75,4.67,4.79,2.48,0,6-.77,7.16.51,1.33,1.47.64,4.83.69,7.38.07,3.33,0,3.33-3.42,3.34-2.41,0-4.83.07-7.24,0-1.43-.05-1.87.47-1.84,1.87.13,5.46-.56,4.34,4.24,4.46,2,.05,4,.06,6,0,2.43-.09,3.4,1.3,3.56,3.43.12,1.57-.1,3.18.06,4.74.22,2.29-.68,3.12-3,3.09q-10.23-.13-20.47,0c-1.82,0-2.21-.62-2.19-2.3C285.51,298.66,285.46,291.66,285.46,284.67Z"/>
        <path d="M224,284.8c0-7,.06-14,0-21,0-1.76.53-2.25,2.26-2.23q10.11.14,20.23,0c1.94,0,2.74.64,2.63,2.59s0,3.67,0,5.5-.82,2.73-2.77,2.67c-3-.09-6,0-9,0-1.46,0-2,.36-2.06,1.94-.07,4.89-.15,4.89,4.81,4.89,2.08,0,4.17.07,6.24,0,1.55-.06,2,.61,2,2.07-.07,2.33-.1,4.67,0,7,.09,1.82-.73,2.27-2.37,2.22-2.91-.09-5.83,0-8.74,0-1.32,0-2,.25-1.93,1.77.13,5.65-.56,4.42,4.39,4.55a56.45,56.45,0,0,0,6.24,0c2.26-.21,2.85,1.11,3.16,2.88a4.58,4.58,0,0,1,0,.74c.27,7.63.27,7.63-7.28,7.63-5.08,0-10.16-.11-15.23,0-2.15.07-2.62-.66-2.59-2.68C224,298.45,224,291.63,224,284.8Z"/>
        <path d="M260.54,289.76c0-5-.06-10,0-15,0-1.74-.31-2.5-2.3-2.5-6.78,0-6.78-.1-6.78-6.79a6.3,6.3,0,0,1,.06-2.22c.27-.64,1-1.56,1.52-1.57q13.85-.13,27.71,0c.48,0,1.07.87,1.4,1.45a3.17,3.17,0,0,1,0,1.48c-.1,2.39.64,5.46-.58,7-1,1.22-4.3.71-6.58.68-1.91,0-1.9,1-1.9,2.38,0,10.07-.06,20.14.07,30.2,0,2.41-.67,3.26-3.08,3.08a66.83,66.83,0,0,0-7.49,0c-1.62.05-2.17-.58-2.15-2.19C260.59,300.41,260.54,295.09,260.54,289.76Z"/>
        <path d="M522.69,285c0,6.82-.05,13.65,0,20.47,0,1.79-.39,2.56-2.33,2.45-2.57-.15-5.16-.08-7.73,0-1.27,0-1.76-.36-1.76-1.69q.06-21.47,0-42.93c0-1.34.51-1.72,1.76-1.69,2.66.07,5.33.1,8,0,1.7-.07,2.08.65,2.06,2.2C522.66,270.88,522.69,278,522.69,285Z"/>
        <g id="I1qwhS">
          <path class="cls-1" d="M0,119.89v-71c0-13.73,7.08-31.42,19-39,7-4.45,15.57-5.71,23.84-6.63C75.66-.34,108.92.65,141.83.88c9.16.07,18.32.45,27.47.75,15.15.49,34,.7,46.44,10.46,6.52,5.12,10.71,12.77,13,20.74s2.77,16.34,3,24.63q.44,12.79.2,25.62a2.89,2.89,0,0,1-3.48,3.53c-23.2.16-46.41.08-69.61.08l-23.75,0c-.84,0-1.67,0-2.5,0-3.05-.16-4.24-1.23-4.32-4.32s.33-6,.18-9A73.65,73.65,0,0,0,127.23,61c-2.32-10.37-18.12-9.29-22.06-.81C99.34,72.8,103.6,95,103.6,108.59v51.92c0,2.33-.12,4.66-.09,7,.08,4.77,1.27,9.11,5.5,11.92,4,2.69,8.51,2.41,12.71.73s6.29-5.31,6.37-9.88q.25-13.74.34-27.48c0-3.13,1.65-5,4.8-5l84,0c1.74,0,3.49-.06,5.23.07a3.13,3.13,0,0,1,2.13.88c.67.94-.22,1.6-.94,2.24a46.7,46.7,0,0,0-15.29,40.84,46,46,0,0,0,14.74,27.79c.68.61,1.59,1.24,2.42.87a2.42,2.42,0,0,0,1.07-1.42c3.24-7.93,4.36-16.38,4.49-24.89.14-9.24,0-18.49,0-27.74,0-4.25,0-8.5.23-12.73a5.35,5.35,0,0,0-2.12-4.78c-1.22-1-1-1.5.16-2.45A54.63,54.63,0,0,1,242,128.58c4.16-1.86,8.19-4,12.3-6,2.81-1.35,3.76-1.13,5.37,1.51,1.38,2.27,2.45,4.72,3.78,7,3,5.25,6.17,10.44,9.23,15.68,2.93,5,5.61,10.18,8.77,15s6.73,9.71,10.39,14.33a134.24,134.24,0,0,0,10.68,12.16,22.15,22.15,0,0,0,9.66,5.93c4.74,1.32,8.75-.54,10.4-5.17,9.09-25.65-29.63-53-43.95-70.18-16.22-19.4-35.26-50.11-18.14-74.5a4.25,4.25,0,0,0,.41-.63,36.52,36.52,0,0,1,8.51-11.88c15.75-15.48,38.32-24,60.38-25.13,17.38-.87,35.66,4.39,47.7,17a49.4,49.4,0,0,1,12.68,42.43,49.37,49.37,0,0,1-27,35.07c-2,1-4.49,2.31-4.4,4.55a5.43,5.43,0,0,0,1.68,3.17c12.17,14.13,24.05,28.84,36.62,42.48,1.22-1,1-2.13,1-3.75q0-46.87.06-93.75c0-18,5-37,22.42-45.34,10.11-4.82,21.58-5.78,32.76-6.44C477.39.72,501.56.3,525.72.27c22.07,0,44.95-1.6,66.64,3.18,11.41,2.52,22.54,8.3,29.12,18,3.84,5.64,5.95,12.31,7.22,19,2.64,13.83,1.43,28.42,1.41,42.44,0,3.06-.39,3.43-3.48,3.45-5,0-10,0-15,0-10.74.09-21.48.27-32.22.31-16,.06-32,0-48,0-.41,0-.83,0-1.25,0-3.09-.13-4-1-4-4.11,0-5.58,0-11.16-.07-16.75a22,22,0,0,0-.4-3.71c-.7-3.86-6.16-8.93-11.07-8.43-2.91.3-5.74.25-8.25,2.16-3,2.31-4.16,5.53-4.69,9a43.69,43.69,0,0,0-.21,6.48c0,17.41-.11,34.82-.08,52.23,0,14.91.18,29.82.2,44.73a16.45,16.45,0,0,0,2.47,8.78,8.4,8.4,0,0,0,3.91,3.22,17.24,17.24,0,0,0,10.09.55c4-.9,7.82-5.83,8-11,.1-3,.17-6,.17-9,0-5.91-.05-11.83,0-17.74,0-3.91,1.4-5.35,5.22-5.35q46.13,0,92.25,0c4.47,0,6.45,2,6.46,6.34,0,12.75-.14,25.5,0,38.24.13,9.48-2,21.07-6.77,29.3-7.16,12.51-21.91,18.78-36.18,20.8-41.84,5.94-86.66,1.87-128.82,1.74-2.95,0-5.91-.73-8.86-1.13-.41-.05-.82-.17-1.23-.2-4.72-.4-9.45-.72-14.16-1.23a15.61,15.61,0,0,1-3.89-1.38c-.23-.1-.53-.66-.45-.78a1.49,1.49,0,0,1,.9-.67,13.93,13.93,0,0,1,2.5-.13,44.19,44.19,0,0,0,11.38-1.25c3.23-.75,6.65-.72,9.85-1.57A174.38,174.38,0,0,0,472,220.42a28.2,28.2,0,0,0,11.65-7.9c16.24-19.4-23.3-21.28-32.63-22.31-14-1.55-28.2-7.29-37.33-18.36a16.67,16.67,0,0,1-2.13-2.72c-1.34-2.59-.64-5,1.56-6.9,2.86-2.41,5.7-4.84,8.39-7.43a125.72,125.72,0,0,0,8.81-9.08c2.9-3.39,5.56-7,8.12-10.68,2.72-3.89,5.5-7.46,10-9.72a18.73,18.73,0,0,0,10.05-12.44c.67-2.57,2-5,1.54-7.74-.88-5.57-2.6-10.6-7.17-14.55-6.25-5.4-13.21-6.19-20.81-4.54-3,.66-5.28,2.59-7.6,4.54a16,16,0,0,0-5.78,10.92c-.78,7.11.93,13.38,6.47,18.27a5.6,5.6,0,0,1,1.62,6.56c-2.05,5.86-5.43,11-9.11,15.92-2.89,3.87-5.8,8-9.84,10.79-1.6,1.1-8.55,3.42-9.05,4.09a2.93,2.93,0,0,0-.38,1.78c0,8.7.11,17.41.11,26.1a84,84,0,0,0,2.14,15.55c2,8.34,6.19,15.6,13.11,20.9,2.74,2.09,6,3.57,9,5.32.07,0,.17,0,.23.09l2.44,2.29a12.35,12.35,0,0,1-3,.59c-6.56-.31-13.15-.38-19.65-1.2C386,226.47,379.88,215,367.44,205.67a8.1,8.1,0,0,0-3.6-1.76c-2.73-.4-5.15,1.65-7.21,3.48-23,20.42-52.37,28.7-83,26.12-17.49-1.48-31.82-9.07-45.69-19.24-2.11-1.55-3-1.69-4.43.49-16.19,24.41-60.66,19.53-85.84,20.26a736.56,736.56,0,0,1-86.37-2.53c-23.06-2-41.48-9-49.28-32.81-.24-.71-.13-1.65-.56-2.15C-.29,195.46,0,193,0,190.63ZM337.27,29.64c-7.49.73-13.85.95-20,3.76a10.78,10.78,0,0,0-6.42,10.82,37.32,37.32,0,0,0,7.52,21c3.28,4.36,6.72,8.61,10.23,12.8,2.45,2.93,5.14,5.65,7.69,8.5a3.28,3.28,0,0,0,3.55,1.25,53,53,0,0,0,6-2.23,24.93,24.93,0,0,0,9-6.46c3.89-4.62,7.49-9.39,9.77-15.18,3-7.63,3.2-14.78-1-22-3.4-5.86-8.75-9.11-14.86-10.9C344.81,29.86,340.44,30,337.27,29.64Z"/>
        </g>
      </g>
    </g>
  </g>
</svg>
