<svg xmlns="http://www.w3.org/2000/svg" viewBox="0 0 496 496">
  <g id="Layer_2" data-name="Layer 2">
    <g id="Icons">
      <g>
        <path d="M461.42,158.93c-9.11-22.57-18.76-43.37-27.17-58.56C421.22,76.82,414.33,72,408,72s-13.22,4.82-26.25,28.37c-8.41,15.19-18.06,36-27.17,58.56C346.47,179,320,247.69,320,287.41c0,9.88,6.87,24.59,25.78,24.59H400v32.33a8,8,0,0,0-7.83,6.36c-.66,3.15-16.17,77.49-16.17,103.43,0,18,3.32,41.88,32,41.88s32-23.9,32-41.88c0-25.94-15.51-100.28-16.17-103.43a8,8,0,0,0-7.83-6.36V312h54.22c18.91,0,25.78-14.71,25.78-24.59C496,247.69,469.53,179,461.42,158.93ZM424,454.12C424,480,415.5,480,408,480s-16,0-16-25.88c0-20.12,10.74-75.05,14.53-93.79h2.94C413.26,379.07,424,434,424,454.12Zm54.73-162.19c-1,1.89-2.91,4.07-8.51,4.07H416V241.8a8,8,0,1,0-16,0V296H345.78c-8.27,0-9.68-5.41-9.78-8.66,0-23.4,12-68.24,31.28-117,18.18-46.07,33.93-73.71,40.72-81,6.79,7.31,22.54,35,40.72,81C468,219.15,480,264,480,287.41A12.09,12.09,0,0,1,478.73,291.93Z"/>
        <path d="M344,400H304V336h8a8,8,0,0,0,0-16H232V256h64a7,7,0,0,0,.79,0,8,8,0,0,0,4.16-1.68,7,7,0,0,0,.71-.62,7.12,7.12,0,0,0,.62-.72,7.9,7.9,0,0,0,1.68-4.15,7,7,0,0,0,0-.79V176h8a8,8,0,0,0,0-16H232V96H352a8,8,0,0,0,0-16H304V16H428a4,4,0,0,1,4,4V56a8,8,0,0,0,16,0V20A20,20,0,0,0,428,0H20A20,20,0,0,0,0,20V396a20,20,0,0,0,20,20H344a8,8,0,0,0,0-16Zm-56,0H160V336H288Zm-72-80H88V256H216ZM72,320H16V256H72Zm72-80H16V176H144ZM72,160H16V96H72Zm216,80H160V176H288Zm-72-80H88V96H216Zm72-80H160V16H288ZM16,20a4,4,0,0,1,4-4H144V80H16Zm0,376V336H144v64H20A4,4,0,0,1,16,396Z"/>
      </g>
    </g>
  </g>
</svg>
