<svg xmlns="http://www.w3.org/2000/svg" viewBox="0 0 496 496">
  <g id="Layer_2" data-name="Layer 2">
    <g id="Icons">
      <g>
        <path d="M496,399.21a2.87,2.87,0,0,0,0-.31,3.4,3.4,0,0,0-.07-.46c0-.13-.06-.25-.09-.38s-.06-.26-.1-.38-.08-.24-.12-.36-.09-.26-.14-.38l-.15-.33c-.06-.13-.12-.26-.19-.38a3,3,0,0,0-.18-.3c-.07-.13-.14-.25-.22-.37s-.16-.22-.24-.33l-.22-.3a6.39,6.39,0,0,0-.5-.54l0,0-152-152A8,8,0,0,0,336,240H224a8,8,0,0,0,0,16H332.69l136,136H163.31l-136-136H112a8,8,0,0,0,0-16H8a9.28,9.28,0,0,0-1.07.08l-.25,0a8,8,0,0,0-2,.62l-.19.09a9.93,9.93,0,0,0-.9.51h0a8.57,8.57,0,0,0-.82.64l-.18.17a8.27,8.27,0,0,0-.71.74h0a7.54,7.54,0,0,0-.61.87L1.1,244a9,9,0,0,0-.49,1h0a7.31,7.31,0,0,0-.34,1l-.05.2A7.19,7.19,0,0,0,0,247.22a.31.31,0,0,1,0,.1c0,.23,0,.45,0,.68v88a8,8,0,0,0,2.34,5.66l152,152,0,0c.18.18.36.34.55.5a3.06,3.06,0,0,0,.29.21,2.7,2.7,0,0,0,.34.25c.11.08.23.15.35.22l.32.19.36.17.35.16.36.13.38.14.36.09.4.1.42.06.35,0a7,7,0,0,0,.79,0H488a8,8,0,0,0,8-8V400A7.14,7.14,0,0,0,496,399.21ZM16,267.32l136,136v65.37l-136-136ZM480,480H168V408H480Z"/>
        <path d="M120,280a8,8,0,0,0-8-8H85.28a8,8,0,0,0-5.66,13.66l88,88a8,8,0,0,0,5.66,2.34H410.72a8,8,0,0,0,5.66-13.65l-88-88a8,8,0,0,0-5.66-2.35H224a8,8,0,0,0,0,16h88v48a8,8,0,0,0,16,0V296.6L391.41,360H176.59l-72-72H112A8,8,0,0,0,120,280Z"/>
        <path d="M101.47,63.59c9,3,13.57,12,18.87,22.49,6.06,12,12.93,25.5,28.08,33.08C161.71,125.8,184,139.94,184,160V320a8,8,0,0,0,16,0V183c.64-.41,1.26-.83,1.86-1.25a58,58,0,0,0,22.88-60,19.94,19.94,0,0,0-5.36-9.74L109.66,2.35A8,8,0,0,0,98.34,13.66L208.06,123.38a3.89,3.89,0,0,1,1.07,1.94A42,42,0,0,1,200,162v-2c0-21.24-15.78-40.83-44.42-55.15-10.43-5.21-15.55-15.31-21-26-6-11.89-12.86-25.36-28.08-30.44-8.18-2.72-27.66-21.1-34.94-42.94a8,8,0,0,0-15.18,5.06C65.25,37.05,88.61,59.31,101.47,63.59Z"/>
        <path d="M109.61,120.92a4,4,0,0,1,1.11,3.53,57.64,57.64,0,0,0-.72,14.09L13.4,50.1A8,8,0,1,0,2.6,61.9L128.72,177.37l0,0a57.57,57.57,0,0,0,5.41,4.39l.13.1a4.06,4.06,0,0,1,1.7,3.3V296a8,8,0,0,0,16,0V185.2a20.07,20.07,0,0,0-8.45-16.36l-.09-.06a42.29,42.29,0,0,1-17-41.54,20,20,0,0,0-5.56-17.63L13.66,2.35A8,8,0,0,0,2.34,13.66Z"/>
      </g>
    </g>
  </g>
</svg>
